<?xml version="1.0" encoding="UTF-8"?>
<!DOCTYPE svg PUBLIC "-//W3C//DTD SVG 1.1//EN" "http://www.w3.org/Graphics/SVG/1.1/DTD/svg11.dtd">
<svg xmlns="http://www.w3.org/2000/svg" version="1.1" width="675px" height="233px" style="shape-rendering:geometricPrecision; text-rendering:geometricPrecision; image-rendering:optimizeQuality; fill-rule:evenodd; clip-rule:evenodd" xmlns:xlink="http://www.w3.org/1999/xlink">
<g><path style="opacity:0.982" fill="#3c51d9" d="M 96.5,-0.5 C 99.1667,-0.5 101.833,-0.5 104.5,-0.5C 105.504,0.682751 106.338,2.01608 107,3.5C 107.667,35.8333 107.667,68.1667 107,100.5C 90.8949,118.607 74.0615,136.107 56.5,153C 52.6251,154.52 48.6251,154.854 44.5,154C 29.271,138.938 14.271,123.772 -0.5,108.5C -0.5,105.167 -0.5,101.833 -0.5,98.5C 31.4437,65.2219 63.777,32.2219 96.5,-0.5 Z"/></g>
<g><path style="opacity:0.98" fill="#3c51d9" d="M 127.5,-0.5 C 130.167,-0.5 132.833,-0.5 135.5,-0.5C 167.772,31.9396 199.939,64.6062 232,97.5C 234,101.5 234,105.5 232,109.5C 217.529,124.971 202.696,140.138 187.5,155C 184.167,157 180.833,157 177.5,155C 159.272,137.441 141.772,119.274 125,100.5C 124.333,68.1667 124.333,35.8333 125,3.5C 125.662,2.01608 126.496,0.682751 127.5,-0.5 Z"/></g>
<g><path style="opacity:0.964" fill="#e9edfe" d="M 417.5,65.5 C 460.45,65.6111 479.616,86.9445 475,129.5C 468.864,150.332 455.031,162.498 433.5,166C 409.205,168.603 391.039,159.437 379,138.5C 370.145,115.778 373.979,95.6113 390.5,78C 398.575,71.6261 407.575,67.4595 417.5,65.5 Z M 420.5,91.5 C 441.221,91.4009 450.055,101.734 447,122.5C 443.43,135.389 434.93,141.223 421.5,140C 411.676,138.176 405.842,132.342 404,122.5C 401.494,110.64 404.994,101.14 414.5,94C 416.611,93.1553 418.611,92.322 420.5,91.5 Z"/></g>
<g><path style="opacity:0.97" fill="#e9edfe" d="M 288.5,66.5 C 315.167,66.5 341.833,66.5 368.5,66.5C 368.666,73.5079 368.5,80.5079 368,87.5C 353.803,105.397 339.969,123.564 326.5,142C 340.829,142.5 355.163,142.667 369.5,142.5C 369.5,150.5 369.5,158.5 369.5,166.5C 341.5,166.5 313.5,166.5 285.5,166.5C 285.334,159.492 285.5,152.492 286,145.5C 299.833,127.667 313.667,109.833 327.5,92C 314.504,91.5001 301.504,91.3334 288.5,91.5C 288.5,83.1667 288.5,74.8333 288.5,66.5 Z"/></g>
<g><path style="opacity:0.964" fill="#e9edfe" d="M 483.5,67.5 C 503.221,67.0493 522.888,67.5493 542.5,69C 561.088,76.3406 567.921,89.8406 563,109.5C 559.379,118.723 552.879,124.889 543.5,128C 550.833,140.333 558.167,152.667 565.5,165C 554.833,165.667 544.167,165.667 533.5,165C 527.034,153.039 520.367,141.205 513.5,129.5C 512.501,141.482 512.168,153.482 512.5,165.5C 502.833,165.5 493.167,165.5 483.5,165.5C 483.5,132.833 483.5,100.167 483.5,67.5 Z M 512.5,90.5 C 518.593,90.1392 524.593,90.6392 530.5,92C 534.084,93.6638 535.751,96.4971 535.5,100.5C 535.751,104.503 534.084,107.336 530.5,109C 524.565,110.239 518.565,110.739 512.5,110.5C 512.5,103.833 512.5,97.1667 512.5,90.5 Z"/></g>
<g><path style="opacity:0.965" fill="#e9edfe" d="M 674.5,161.5 C 674.5,162.833 674.5,164.167 674.5,165.5C 664.5,165.5 654.5,165.5 644.5,165.5C 643.334,160.17 641.668,155.003 639.5,150C 628.172,149.5 616.838,149.333 605.5,149.5C 604.134,154.573 602.468,159.573 600.5,164.5C 590.5,165.833 580.5,165.833 570.5,164.5C 582.432,132.539 594.265,100.539 606,68.5C 617.105,67.1805 628.272,67.1805 639.5,68.5C 650.999,99.6765 662.666,130.676 674.5,161.5 Z M 622.5,99.5 C 625.907,108.547 629.24,117.713 632.5,127C 626.141,127.831 619.807,127.664 613.5,126.5C 616.705,117.55 619.705,108.55 622.5,99.5 Z"/></g>
<g><path style="opacity:0.977" fill="#2ef2fe" d="M 112.5,124.5 C 116.41,124.263 120.077,125.096 123.5,127C 137.333,140.833 151.167,154.667 165,168.5C 168.513,174.413 168.179,180.08 164,185.5C 151.167,198.333 138.333,211.167 125.5,224C 120.052,228.023 114.385,228.356 108.5,225C 94.6667,211.167 80.8333,197.333 67,183.5C 63.6667,178.167 63.6667,172.833 67,167.5C 80.1667,154.333 93.3333,141.167 106.5,128C 108.432,126.541 110.432,125.375 112.5,124.5 Z"/></g>
</svg>
